<?xml version="1.0" encoding="UTF-8" standalone="no"?>
<!DOCTYPE svg PUBLIC "-//W3C//DTD SVG 1.1//EN"
 "http://www.w3.org/Graphics/SVG/1.1/DTD/svg11.dtd">
<!-- Generated by graphviz version 12.2.0 (20241103.1931)
 -->
<!-- Title: dependency&#45;cruiser output Pages: 1 -->
<svg width="585pt" height="478pt"
 viewBox="0.00 0.00 585.00 478.00" xmlns="http://www.w3.org/2000/svg" xmlns:xlink="http://www.w3.org/1999/xlink">
<g id="graph0" class="graph" transform="scale(1 1) rotate(0) translate(4 474)">
<title>dependency&#45;cruiser output</title>
<polygon fill="white" stroke="none" points="-4,4 -4,-474 581,-474 581,4 -4,4"/>
<g id="clust1" class="cluster">
<title>cluster_components</title>
<path fill="#ffffff" stroke="black" stroke-width="2" d="M20,-8C20,-8 557,-8 557,-8 563,-8 569,-14 569,-20 569,-20 569,-450 569,-450 569,-456 563,-462 557,-462 557,-462 20,-462 20,-462 14,-462 8,-456 8,-450 8,-450 8,-20 8,-20 8,-14 14,-8 20,-8"/>
<text text-anchor="middle" x="288.5" y="-449.45" font-family="Helvetica,sans-Serif" font-weight="bold" font-size="9.00">components</text>
</g>
<g id="clust2" class="cluster">
<title>cluster_components/__tests__</title>
<path fill="#ffffff" stroke="black" stroke-width="2" d="M40.62,-281C40.62,-281 116.88,-281 116.88,-281 122.88,-281 128.88,-287 128.88,-293 128.88,-293 128.88,-321 128.88,-321 128.88,-327 122.88,-333 116.88,-333 116.88,-333 40.62,-333 40.62,-333 34.63,-333 28.62,-327 28.62,-321 28.62,-321 28.62,-293 28.62,-293 28.62,-287 34.62,-281 40.62,-281"/>
<text text-anchor="middle" x="78.75" y="-320.45" font-family="Helvetica,sans-Serif" font-weight="bold" font-size="9.00">__tests__</text>
</g>
<g id="clust3" class="cluster">
<title>cluster_components/base</title>
<path fill="#ffffff" stroke="black" stroke-width="2" d="M171.75,-16C171.75,-16 444.88,-16 444.88,-16 450.88,-16 456.88,-22 456.88,-28 456.88,-28 456.88,-174 456.88,-174 456.88,-180 450.88,-186 444.88,-186 444.88,-186 171.75,-186 171.75,-186 165.75,-186 159.75,-180 159.75,-174 159.75,-174 159.75,-28 159.75,-28 159.75,-22 165.75,-16 171.75,-16"/>
<text text-anchor="middle" x="308.31" y="-173.45" font-family="Helvetica,sans-Serif" font-weight="bold" font-size="9.00">base</text>
</g>
<g id="clust4" class="cluster">
<title>cluster_components/display</title>
<path fill="#ffffff" stroke="black" stroke-width="2" d="M161.5,-324C161.5,-324 342.12,-324 342.12,-324 348.12,-324 354.12,-330 354.12,-336 354.12,-336 354.12,-424 354.12,-424 354.12,-430 348.12,-436 342.12,-436 342.12,-436 161.5,-436 161.5,-436 155.5,-436 149.5,-430 149.5,-424 149.5,-424 149.5,-336 149.5,-336 149.5,-330 155.5,-324 161.5,-324"/>
<text text-anchor="middle" x="251.81" y="-423.45" font-family="Helvetica,sans-Serif" font-weight="bold" font-size="9.00">display</text>
</g>
<g id="clust5" class="cluster">
<title>cluster_components/feedback</title>
<path fill="#ffffff" stroke="black" stroke-width="2" d="M28.62,-221C28.62,-221 128.88,-221 128.88,-221 134.88,-221 140.88,-227 140.88,-233 140.88,-233 140.88,-261 140.88,-261 140.88,-267 134.88,-273 128.88,-273 128.88,-273 28.62,-273 28.62,-273 22.62,-273 16.62,-267 16.62,-261 16.62,-261 16.62,-233 16.62,-233 16.62,-227 22.62,-221 28.62,-221"/>
<text text-anchor="middle" x="78.75" y="-260.45" font-family="Helvetica,sans-Serif" font-weight="bold" font-size="9.00">feedback</text>
</g>
<g id="clust6" class="cluster">
<title>cluster_components/media</title>
<path fill="#ffffff" stroke="black" stroke-width="2" d="M255,-234C255,-234 353.75,-234 353.75,-234 359.75,-234 365.75,-240 365.75,-246 365.75,-246 365.75,-304 365.75,-304 365.75,-310 359.75,-316 353.75,-316 353.75,-316 255,-316 255,-316 249,-316 243,-310 243,-304 243,-304 243,-246 243,-246 243,-240 249,-234 255,-234"/>
<text text-anchor="middle" x="304.38" y="-303.45" font-family="Helvetica,sans-Serif" font-weight="bold" font-size="9.00">media</text>
</g>
<g id="clust7" class="cluster">
<title>cluster_components/types</title>
<path fill="#ffffff" stroke="black" stroke-width="2" d="M490,-162C490,-162 549,-162 549,-162 555,-162 561,-168 561,-174 561,-174 561,-292 561,-292 561,-298 555,-304 549,-304 549,-304 490,-304 490,-304 484,-304 478,-298 478,-292 478,-292 478,-174 478,-174 478,-168 484,-162 490,-162"/>
<text text-anchor="middle" x="519.5" y="-291.45" font-family="Helvetica,sans-Serif" font-weight="bold" font-size="9.00">types</text>
</g>
<!-- components/EditScreenInfo.tsx -->
<g id="node1" class="node">
<title>components/EditScreenInfo.tsx</title>
<g id="a_node1"><a xlink:href="components/EditScreenInfo.tsx" xlink:title="EditScreenInfo.tsx">
<path fill="#bbfeff" stroke="black" d="M117.58,-212.88C117.58,-212.88 39.92,-212.88 39.92,-212.88 36.96,-212.88 34,-209.92 34,-206.96 34,-206.96 34,-201.04 34,-201.04 34,-198.08 36.96,-195.12 39.92,-195.12 39.92,-195.12 117.58,-195.12 117.58,-195.12 120.54,-195.12 123.5,-198.08 123.5,-201.04 123.5,-201.04 123.5,-206.96 123.5,-206.96 123.5,-209.92 120.54,-212.88 117.58,-212.88"/>
<text text-anchor="start" x="42" y="-200.32" font-family="Helvetica,sans-Serif" font-size="9.00">EditScreenInfo.tsx</text>
</a>
</g>
</g>
<!-- components/ExternalLink.tsx -->
<g id="node2" class="node">
<title>components/ExternalLink.tsx</title>
<g id="a_node2"><a xlink:href="components/ExternalLink.tsx" xlink:title="ExternalLink.tsx">
<path fill="#bbfeff" stroke="black" d="M229.08,-211.88C229.08,-211.88 160.42,-211.88 160.42,-211.88 157.46,-211.88 154.5,-208.92 154.5,-205.96 154.5,-205.96 154.5,-200.04 154.5,-200.04 154.5,-197.08 157.46,-194.12 160.42,-194.12 160.42,-194.12 229.08,-194.12 229.08,-194.12 232.04,-194.12 235,-197.08 235,-200.04 235,-200.04 235,-205.96 235,-205.96 235,-208.92 232.04,-211.88 229.08,-211.88"/>
<text text-anchor="start" x="162.5" y="-199.32" font-family="Helvetica,sans-Serif" font-size="9.00">ExternalLink.tsx</text>
</a>
</g>
</g>
<!-- components/EditScreenInfo.tsx&#45;&gt;components/ExternalLink.tsx -->
<g id="edge1" class="edge">
<title>components/EditScreenInfo.tsx&#45;&gt;components/ExternalLink.tsx</title>
<path fill="none" stroke="#000000" stroke-width="2" stroke-opacity="0.200000" d="M123.93,-200.71C123.93,-200.71 145.01,-200.71 145.01,-200.71"/>
<polygon fill="#000000" fill-opacity="0.200000" stroke="#000000" stroke-width="2" stroke-opacity="0.200000" points="145.01,-202.81 151.01,-200.71 145.01,-198.61 145.01,-202.81"/>
</g>
<!-- components/StyledText.tsx -->
<g id="node3" class="node">
<title>components/StyledText.tsx</title>
<g id="a_node3"><a xlink:href="components/StyledText.tsx" xlink:title="StyledText.tsx">
<path fill="#bbfeff" stroke="black" d="M224.58,-255.88C224.58,-255.88 164.92,-255.88 164.92,-255.88 161.96,-255.88 159,-252.92 159,-249.96 159,-249.96 159,-244.04 159,-244.04 159,-241.08 161.96,-238.12 164.92,-238.12 164.92,-238.12 224.58,-238.12 224.58,-238.12 227.54,-238.12 230.5,-241.08 230.5,-244.04 230.5,-244.04 230.5,-249.96 230.5,-249.96 230.5,-252.92 227.54,-255.88 224.58,-255.88"/>
<text text-anchor="start" x="167" y="-243.32" font-family="Helvetica,sans-Serif" font-size="9.00">StyledText.tsx</text>
</a>
</g>
</g>
<!-- components/EditScreenInfo.tsx&#45;&gt;components/StyledText.tsx -->
<g id="edge2" class="edge">
<title>components/EditScreenInfo.tsx&#45;&gt;components/StyledText.tsx</title>
<path fill="none" stroke="#000000" stroke-width="2" stroke-opacity="0.200000" d="M123.78,-206.29C137.01,-206.29 148,-206.29 148,-206.29 148,-206.29 148,-242.5 148,-242.5 148,-242.5 149.82,-242.5 149.82,-242.5"/>
<polygon fill="#000000" fill-opacity="0.200000" stroke="#000000" stroke-width="2" stroke-opacity="0.200000" points="149.82,-244.6 155.82,-242.5 149.82,-240.4 149.82,-244.6"/>
</g>
<!-- components/Themed.tsx -->
<g id="node4" class="node">
<title>components/Themed.tsx</title>
<g id="a_node4"><a xlink:href="components/Themed.tsx" xlink:title="Themed.tsx">
<path fill="#bbfeff" stroke="black" d="M330.08,-211.88C330.08,-211.88 278.67,-211.88 278.67,-211.88 275.71,-211.88 272.75,-208.92 272.75,-205.96 272.75,-205.96 272.75,-200.04 272.75,-200.04 272.75,-197.08 275.71,-194.12 278.67,-194.12 278.67,-194.12 330.08,-194.12 330.08,-194.12 333.04,-194.12 336,-197.08 336,-200.04 336,-200.04 336,-205.96 336,-205.96 336,-208.92 333.04,-211.88 330.08,-211.88"/>
<text text-anchor="start" x="280.75" y="-199.32" font-family="Helvetica,sans-Serif" font-size="9.00">Themed.tsx</text>
</a>
</g>
</g>
<!-- components/EditScreenInfo.tsx&#45;&gt;components/Themed.tsx -->
<g id="edge3" class="edge">
<title>components/EditScreenInfo.tsx&#45;&gt;components/Themed.tsx</title>
<path fill="none" stroke="#000000" stroke-width="2" stroke-opacity="0.200000" d="M78.75,-213.29C78.75,-218.32 78.75,-223.5 78.75,-223.5 78.75,-223.5 304.38,-223.5 304.38,-223.5 304.38,-223.5 304.38,-221.32 304.38,-221.32"/>
<polygon fill="#000000" fill-opacity="0.200000" stroke="#000000" stroke-width="2" stroke-opacity="0.200000" points="306.48,-221.32 304.38,-215.32 302.28,-221.32 306.48,-221.32"/>
</g>
<!-- components/StyledText.tsx&#45;&gt;components/Themed.tsx -->
<g id="edge4" class="edge">
<title>components/StyledText.tsx&#45;&gt;components/Themed.tsx</title>
<path fill="none" stroke="#000000" stroke-width="2" stroke-opacity="0.200000" d="M230.82,-249C237.81,-249 243,-249 243,-249 243,-249 243,-203 243,-203 243,-203 263.58,-203 263.58,-203"/>
<polygon fill="#000000" fill-opacity="0.200000" stroke="#000000" stroke-width="2" stroke-opacity="0.200000" points="263.58,-205.1 269.58,-203 263.58,-200.9 263.58,-205.1"/>
</g>
<!-- components/useColorScheme.ts -->
<g id="node5" class="node">
<title>components/useColorScheme.ts</title>
<g id="a_node5"><a xlink:href="components/useColorScheme.ts" xlink:title="useColorScheme.ts">
<path fill="#ddfeff" stroke="black" d="M464.08,-211.88C464.08,-211.88 379.67,-211.88 379.67,-211.88 376.71,-211.88 373.75,-208.92 373.75,-205.96 373.75,-205.96 373.75,-200.04 373.75,-200.04 373.75,-197.08 376.71,-194.12 379.67,-194.12 379.67,-194.12 464.08,-194.12 464.08,-194.12 467.04,-194.12 470,-197.08 470,-200.04 470,-200.04 470,-205.96 470,-205.96 470,-208.92 467.04,-211.88 464.08,-211.88"/>
<text text-anchor="start" x="381.75" y="-199.32" font-family="Helvetica,sans-Serif" font-size="9.00">useColorScheme.ts</text>
</a>
</g>
</g>
<!-- components/Themed.tsx&#45;&gt;components/useColorScheme.ts -->
<g id="edge5" class="edge">
<title>components/Themed.tsx&#45;&gt;components/useColorScheme.ts</title>
<path fill="none" stroke="#000000" stroke-width="2" stroke-opacity="0.200000" d="M336.48,-205.96C336.48,-205.96 364.46,-205.96 364.46,-205.96"/>
<polygon fill="#000000" fill-opacity="0.200000" stroke="#000000" stroke-width="2" stroke-opacity="0.200000" points="364.46,-208.06 370.46,-205.96 364.46,-203.86 364.46,-208.06"/>
</g>
<!-- components/base/Text.tsx -->
<g id="node6" class="node">
<title>components/base/Text.tsx</title>
<g id="a_node6"><a xlink:href="components/base/Text.tsx" xlink:title="Text.tsx">
<path fill="#bbfeff" stroke="black" d="M442.96,-129.88C442.96,-129.88 400.79,-129.88 400.79,-129.88 397.83,-129.88 394.88,-126.92 394.88,-123.96 394.88,-123.96 394.88,-118.04 394.88,-118.04 394.88,-115.08 397.83,-112.12 400.79,-112.12 400.79,-112.12 442.96,-112.12 442.96,-112.12 445.92,-112.12 448.88,-115.08 448.88,-118.04 448.88,-118.04 448.88,-123.96 448.88,-123.96 448.88,-126.92 445.92,-129.88 442.96,-129.88"/>
<text text-anchor="start" x="406.88" y="-117.33" font-family="Helvetica,sans-Serif" font-size="9.00">Text.tsx</text>
</a>
</g>
</g>
<!-- components/Themed.tsx&#45;&gt;components/base/Text.tsx -->
<g id="edge6" class="edge">
<title>components/Themed.tsx&#45;&gt;components/base/Text.tsx</title>
<path fill="none" stroke="#000000" stroke-width="2" stroke-opacity="0.200000" d="M336.36,-200.04C340.87,-200.04 344,-200.04 344,-200.04 344,-200.04 344,-119.38 344,-119.38 344,-119.38 385.61,-119.38 385.61,-119.38"/>
<polygon fill="#000000" fill-opacity="0.200000" stroke="#000000" stroke-width="2" stroke-opacity="0.200000" points="385.61,-121.48 391.61,-119.38 385.61,-117.28 385.61,-121.48"/>
</g>
<!-- components/types/base.tsx -->
<g id="node9" class="node">
<title>components/types/base.tsx</title>
<g id="a_node9"><a xlink:href="components/types/base.tsx" xlink:title="base.tsx">
<path fill="#bbfeff" stroke="black" d="M540.58,-187.88C540.58,-187.88 498.42,-187.88 498.42,-187.88 495.46,-187.88 492.5,-184.92 492.5,-181.96 492.5,-181.96 492.5,-176.04 492.5,-176.04 492.5,-173.08 495.46,-170.12 498.42,-170.12 498.42,-170.12 540.58,-170.12 540.58,-170.12 543.54,-170.12 546.5,-173.08 546.5,-176.04 546.5,-176.04 546.5,-181.96 546.5,-181.96 546.5,-184.92 543.54,-187.88 540.58,-187.88"/>
<text text-anchor="start" x="502.62" y="-175.32" font-family="Helvetica,sans-Serif" font-size="9.00">base.tsx</text>
</a>
</g>
</g>
<!-- components/base/Text.tsx&#45;&gt;components/types/base.tsx -->
<g id="edge14" class="edge">
<title>components/base/Text.tsx&#45;&gt;components/types/base.tsx</title>
<path fill="none" stroke="#000000" stroke-width="2" stroke-opacity="0.200000" d="M448.96,-121C473.55,-121 506,-121 506,-121 506,-121 506,-160.65 506,-160.65"/>
<polygon fill="#000000" fill-opacity="0.200000" stroke="#000000" stroke-width="2" stroke-opacity="0.200000" points="503.9,-160.65 506,-166.65 508.1,-160.65 503.9,-160.65"/>
</g>
<!-- components/__tests__/StyledText&#45;test.js -->
<g id="node7" class="node">
<title>components/__tests__/StyledText&#45;test.js</title>
<g id="a_node7"><a xlink:href="components/__tests__/StyledText-test.js" xlink:title="StyledText&#45;test.js">
<path fill="#ffffcc" stroke="black" d="M114.96,-306.88C114.96,-306.88 42.54,-306.88 42.54,-306.88 39.58,-306.88 36.62,-303.92 36.62,-300.96 36.62,-300.96 36.62,-295.04 36.62,-295.04 36.62,-292.08 39.58,-289.12 42.54,-289.12 42.54,-289.12 114.96,-289.12 114.96,-289.12 117.92,-289.12 120.88,-292.08 120.88,-295.04 120.88,-295.04 120.88,-300.96 120.88,-300.96 120.88,-303.92 117.92,-306.88 114.96,-306.88"/>
<text text-anchor="start" x="44.62" y="-294.32" font-family="Helvetica,sans-Serif" font-size="9.00">StyledText&#45;test.js</text>
</a>
</g>
</g>
<!-- components/__tests__/StyledText&#45;test.js&#45;&gt;components/StyledText.tsx -->
<g id="edge7" class="edge">
<title>components/__tests__/StyledText&#45;test.js&#45;&gt;components/StyledText.tsx</title>
<path fill="none" stroke="#000000" stroke-width="2" stroke-opacity="0.200000" d="M121.29,-298.38C154.39,-298.38 194.75,-298.38 194.75,-298.38 194.75,-298.38 194.75,-264.98 194.75,-264.98"/>
<polygon fill="#000000" fill-opacity="0.200000" stroke="#000000" stroke-width="2" stroke-opacity="0.200000" points="196.85,-264.98 194.75,-258.98 192.65,-264.98 196.85,-264.98"/>
</g>
<!-- components/base/Button.tsx -->
<g id="node8" class="node">
<title>components/base/Button.tsx</title>
<g id="a_node8"><a xlink:href="components/base/Button.tsx" xlink:title="Button.tsx">
<path fill="#bbfeff" stroke="black" d="M326.33,-131.88C326.33,-131.88 282.42,-131.88 282.42,-131.88 279.46,-131.88 276.5,-128.92 276.5,-125.96 276.5,-125.96 276.5,-120.04 276.5,-120.04 276.5,-117.08 279.46,-114.12 282.42,-114.12 282.42,-114.12 326.33,-114.12 326.33,-114.12 329.29,-114.12 332.25,-117.08 332.25,-120.04 332.25,-120.04 332.25,-125.96 332.25,-125.96 332.25,-128.92 329.29,-131.88 326.33,-131.88"/>
<text text-anchor="start" x="284.5" y="-119.33" font-family="Helvetica,sans-Serif" font-size="9.00">Button.tsx</text>
</a>
</g>
</g>
<!-- components/base/Button.tsx&#45;&gt;components/base/Text.tsx -->
<g id="edge9" class="edge">
<title>components/base/Button.tsx&#45;&gt;components/base/Text.tsx</title>
<path fill="none" stroke="#000000" stroke-width="2" stroke-opacity="0.200000" d="M332.52,-116.75C332.52,-116.75 385.74,-116.75 385.74,-116.75"/>
<polygon fill="#000000" fill-opacity="0.200000" stroke="#000000" stroke-width="2" stroke-opacity="0.200000" points="385.74,-118.85 391.74,-116.75 385.74,-114.65 385.74,-118.85"/>
</g>
<!-- components/base/Button.tsx&#45;&gt;components/types/base.tsx -->
<g id="edge8" class="edge">
<title>components/base/Button.tsx&#45;&gt;components/types/base.tsx</title>
<path fill="none" stroke="#000000" stroke-width="2" stroke-opacity="0.200000" d="M295.08,-132.18C295.08,-149.09 295.08,-183.44 295.08,-183.44 295.08,-183.44 483.4,-183.44 483.4,-183.44"/>
<polygon fill="#000000" fill-opacity="0.200000" stroke="#000000" stroke-width="2" stroke-opacity="0.200000" points="483.4,-185.54 489.4,-183.44 483.4,-181.34 483.4,-185.54"/>
</g>
<!-- components/base/View.tsx -->
<g id="node10" class="node">
<title>components/base/View.tsx</title>
<g id="a_node10"><a xlink:href="components/base/View.tsx" xlink:title="View.tsx">
<path fill="#bbfeff" stroke="black" d="M442.96,-159.88C442.96,-159.88 400.79,-159.88 400.79,-159.88 397.83,-159.88 394.88,-156.92 394.88,-153.96 394.88,-153.96 394.88,-148.04 394.88,-148.04 394.88,-145.08 397.83,-142.12 400.79,-142.12 400.79,-142.12 442.96,-142.12 442.96,-142.12 445.92,-142.12 448.88,-145.08 448.88,-148.04 448.88,-148.04 448.88,-153.96 448.88,-153.96 448.88,-156.92 445.92,-159.88 442.96,-159.88"/>
<text text-anchor="start" x="405.38" y="-147.32" font-family="Helvetica,sans-Serif" font-size="9.00">View.tsx</text>
</a>
</g>
</g>
<!-- components/base/Button.tsx&#45;&gt;components/base/View.tsx -->
<g id="edge10" class="edge">
<title>components/base/Button.tsx&#45;&gt;components/base/View.tsx</title>
<path fill="none" stroke="#000000" stroke-width="2" stroke-opacity="0.200000" d="M313.67,-132.22C313.67,-138.5 313.67,-145.68 313.67,-145.68 313.67,-145.68 385.54,-145.68 385.54,-145.68"/>
<polygon fill="#000000" fill-opacity="0.200000" stroke="#000000" stroke-width="2" stroke-opacity="0.200000" points="385.54,-147.78 391.54,-145.68 385.54,-143.58 385.54,-147.78"/>
</g>
<!-- components/base/View.tsx&#45;&gt;components/types/base.tsx -->
<g id="edge15" class="edge">
<title>components/base/View.tsx&#45;&gt;components/types/base.tsx</title>
<path fill="none" stroke="#000000" stroke-width="2" stroke-opacity="0.200000" d="M421.88,-160.31C421.88,-166.9 421.88,-174.56 421.88,-174.56 421.88,-174.56 483.02,-174.56 483.02,-174.56"/>
<polygon fill="#000000" fill-opacity="0.200000" stroke="#000000" stroke-width="2" stroke-opacity="0.200000" points="483.02,-176.66 489.02,-174.56 483.02,-172.46 483.02,-176.66"/>
</g>
<!-- components/base/Container.tsx -->
<g id="node11" class="node">
<title>components/base/Container.tsx</title>
<g id="a_node11"><a xlink:href="components/base/Container.tsx" xlink:title="Container.tsx">
<path fill="#bbfeff" stroke="black" d="M333.46,-71.88C333.46,-71.88 275.29,-71.88 275.29,-71.88 272.33,-71.88 269.38,-68.92 269.38,-65.96 269.38,-65.96 269.38,-60.04 269.38,-60.04 269.38,-57.08 272.33,-54.12 275.29,-54.12 275.29,-54.12 333.46,-54.12 333.46,-54.12 336.42,-54.12 339.38,-57.08 339.38,-60.04 339.38,-60.04 339.38,-65.96 339.38,-65.96 339.38,-68.92 336.42,-71.88 333.46,-71.88"/>
<text text-anchor="start" x="277.38" y="-59.33" font-family="Helvetica,sans-Serif" font-size="9.00">Container.tsx</text>
</a>
</g>
</g>
<!-- components/base/Container.tsx&#45;&gt;components/types/base.tsx -->
<g id="edge11" class="edge">
<title>components/base/Container.tsx&#45;&gt;components/types/base.tsx</title>
<path fill="none" stroke="#000000" stroke-width="2" stroke-opacity="0.200000" d="M339.42,-63C400.38,-63 519.5,-63 519.5,-63 519.5,-63 519.5,-160.87 519.5,-160.87"/>
<polygon fill="#000000" fill-opacity="0.200000" stroke="#000000" stroke-width="2" stroke-opacity="0.200000" points="517.4,-160.87 519.5,-166.87 521.6,-160.87 517.4,-160.87"/>
</g>
<!-- components/base/SafeAreaView.tsx -->
<g id="node12" class="node">
<title>components/base/SafeAreaView.tsx</title>
<g id="a_node12"><a xlink:href="components/base/SafeAreaView.tsx" xlink:title="SafeAreaView.tsx">
<path fill="#bbfeff" stroke="black" d="M342.08,-101.88C342.08,-101.88 266.67,-101.88 266.67,-101.88 263.71,-101.88 260.75,-98.92 260.75,-95.96 260.75,-95.96 260.75,-90.04 260.75,-90.04 260.75,-87.08 263.71,-84.12 266.67,-84.12 266.67,-84.12 342.08,-84.12 342.08,-84.12 345.04,-84.12 348,-87.08 348,-90.04 348,-90.04 348,-95.96 348,-95.96 348,-98.92 345.04,-101.88 342.08,-101.88"/>
<text text-anchor="start" x="268.75" y="-89.33" font-family="Helvetica,sans-Serif" font-size="9.00">SafeAreaView.tsx</text>
</a>
</g>
</g>
<!-- components/base/SafeAreaView.tsx&#45;&gt;components/types/base.tsx -->
<g id="edge12" class="edge">
<title>components/base/SafeAreaView.tsx&#45;&gt;components/types/base.tsx</title>
<path fill="none" stroke="#000000" stroke-width="2" stroke-opacity="0.200000" d="M340,-102.2C340,-124.39 340,-179 340,-179 340,-179 483.21,-179 483.21,-179"/>
<polygon fill="#000000" fill-opacity="0.200000" stroke="#000000" stroke-width="2" stroke-opacity="0.200000" points="483.21,-181.1 489.21,-179 483.21,-176.9 483.21,-181.1"/>
</g>
<!-- components/base/ScrollView.tsx -->
<g id="node13" class="node">
<title>components/base/ScrollView.tsx</title>
<g id="a_node13"><a xlink:href="components/base/ScrollView.tsx" xlink:title="ScrollView.tsx">
<path fill="#bbfeff" stroke="black" d="M334.58,-41.88C334.58,-41.88 274.17,-41.88 274.17,-41.88 271.21,-41.88 268.25,-38.92 268.25,-35.96 268.25,-35.96 268.25,-30.04 268.25,-30.04 268.25,-27.08 271.21,-24.12 274.17,-24.12 274.17,-24.12 334.58,-24.12 334.58,-24.12 337.54,-24.12 340.5,-27.08 340.5,-30.04 340.5,-30.04 340.5,-35.96 340.5,-35.96 340.5,-38.92 337.54,-41.88 334.58,-41.88"/>
<text text-anchor="start" x="276.25" y="-29.32" font-family="Helvetica,sans-Serif" font-size="9.00">ScrollView.tsx</text>
</a>
</g>
</g>
<!-- components/base/ScrollView.tsx&#45;&gt;components/types/base.tsx -->
<g id="edge13" class="edge">
<title>components/base/ScrollView.tsx&#45;&gt;components/types/base.tsx</title>
<path fill="none" stroke="#000000" stroke-width="2" stroke-opacity="0.200000" d="M340.85,-33C405.4,-33 533,-33 533,-33 533,-33 533,-160.84 533,-160.84"/>
<polygon fill="#000000" fill-opacity="0.200000" stroke="#000000" stroke-width="2" stroke-opacity="0.200000" points="530.9,-160.84 533,-166.84 535.1,-160.84 530.9,-160.84"/>
</g>
<!-- components/base/index.tsx -->
<g id="node14" class="node">
<title>components/base/index.tsx</title>
<g id="a_node14"><a xlink:href="components/base/index.tsx" xlink:title="index.tsx">
<path fill="#bbfeff" stroke="black" d="M215.83,-116.88C215.83,-116.88 173.67,-116.88 173.67,-116.88 170.71,-116.88 167.75,-113.92 167.75,-110.96 167.75,-110.96 167.75,-105.04 167.75,-105.04 167.75,-102.08 170.71,-99.12 173.67,-99.12 173.67,-99.12 215.83,-99.12 215.83,-99.12 218.79,-99.12 221.75,-102.08 221.75,-105.04 221.75,-105.04 221.75,-110.96 221.75,-110.96 221.75,-113.92 218.79,-116.88 215.83,-116.88"/>
<text text-anchor="start" x="176.75" y="-104.33" font-family="Helvetica,sans-Serif" font-size="9.00">index.tsx</text>
</a>
</g>
</g>
<!-- components/base/index.tsx&#45;&gt;components/base/Text.tsx -->
<g id="edge20" class="edge">
<title>components/base/index.tsx&#45;&gt;components/base/Text.tsx</title>
<path fill="none" stroke="#000000" stroke-width="2" stroke-opacity="0.200000" d="M222.15,-108.71C282.55,-108.71 421.88,-108.71 421.88,-108.71 421.88,-108.71 421.88,-109.02 421.88,-109.02"/>
<polygon fill="#000000" fill-opacity="0.200000" stroke="#000000" stroke-width="2" stroke-opacity="0.200000" points="419.78,-110.81 421.88,-104.81 423.98,-110.81 419.78,-110.81"/>
</g>
<!-- components/base/index.tsx&#45;&gt;components/base/Button.tsx -->
<g id="edge16" class="edge">
<title>components/base/index.tsx&#45;&gt;components/base/Button.tsx</title>
<path fill="none" stroke="#000000" stroke-width="2" stroke-opacity="0.200000" d="M203.75,-117.34C203.75,-121.01 203.75,-124.38 203.75,-124.38 203.75,-124.38 268.91,-124.38 268.91,-124.38"/>
<polygon fill="#000000" fill-opacity="0.200000" stroke="#000000" stroke-width="2" stroke-opacity="0.200000" points="275.08,-126.48 269.08,-124.38 275.08,-122.28 275.08,-126.48"/>
</g>
<!-- components/base/index.tsx&#45;&gt;components/base/View.tsx -->
<g id="edge21" class="edge">
<title>components/base/index.tsx&#45;&gt;components/base/View.tsx</title>
<path fill="none" stroke="#000000" stroke-width="2" stroke-opacity="0.200000" d="M185.75,-117.15C185.75,-129.29 185.75,-149.22 185.75,-149.22 185.75,-149.22 387.62,-149.22 387.62,-149.22"/>
<polygon fill="#000000" fill-opacity="0.200000" stroke="#000000" stroke-width="2" stroke-opacity="0.200000" points="393.79,-151.33 387.79,-149.23 393.79,-147.13 393.79,-151.33"/>
</g>
<!-- components/base/index.tsx&#45;&gt;components/base/Container.tsx -->
<g id="edge17" class="edge">
<title>components/base/index.tsx&#45;&gt;components/base/Container.tsx</title>
<path fill="none" stroke="#000000" stroke-width="2" stroke-opacity="0.200000" d="M203.75,-98.89C203.75,-85.74 203.75,-63 203.75,-63 203.75,-63 261.73,-63 261.73,-63"/>
<polygon fill="#000000" fill-opacity="0.200000" stroke="#000000" stroke-width="2" stroke-opacity="0.200000" points="267.9,-65.1 261.9,-63 267.9,-60.9 267.9,-65.1"/>
</g>
<!-- components/base/index.tsx&#45;&gt;components/base/SafeAreaView.tsx -->
<g id="edge18" class="edge">
<title>components/base/index.tsx&#45;&gt;components/base/SafeAreaView.tsx</title>
<path fill="none" stroke="#000000" stroke-width="2" stroke-opacity="0.200000" d="M221.97,-105.29C242.36,-105.29 266.75,-105.29 266.75,-105.29 266.75,-105.29 266.75,-104.98 266.75,-104.98"/>
<polygon fill="#000000" fill-opacity="0.200000" stroke="#000000" stroke-width="2" stroke-opacity="0.200000" points="268.85,-103.19 266.75,-109.19 264.65,-103.19 268.85,-103.19"/>
</g>
<!-- components/base/index.tsx&#45;&gt;components/base/ScrollView.tsx -->
<g id="edge19" class="edge">
<title>components/base/index.tsx&#45;&gt;components/base/ScrollView.tsx</title>
<path fill="none" stroke="#000000" stroke-width="2" stroke-opacity="0.200000" d="M185.75,-98.8C185.75,-78.78 185.75,-33 185.75,-33 185.75,-33 260.65,-33 260.65,-33"/>
<polygon fill="#000000" fill-opacity="0.200000" stroke="#000000" stroke-width="2" stroke-opacity="0.200000" points="266.82,-35.1 260.82,-33 266.82,-30.9 266.82,-35.1"/>
</g>
<!-- components/display/Card.tsx -->
<g id="node15" class="node">
<title>components/display/Card.tsx</title>
<g id="a_node15"><a xlink:href="components/display/Card.tsx" xlink:title="Card.tsx">
<path fill="#bbfeff" stroke="black" d="M325.46,-379.88C325.46,-379.88 283.29,-379.88 283.29,-379.88 280.33,-379.88 277.38,-376.92 277.38,-373.96 277.38,-373.96 277.38,-368.04 277.38,-368.04 277.38,-365.08 280.33,-362.12 283.29,-362.12 283.29,-362.12 325.46,-362.12 325.46,-362.12 328.42,-362.12 331.38,-365.08 331.38,-368.04 331.38,-368.04 331.38,-373.96 331.38,-373.96 331.38,-376.92 328.42,-379.88 325.46,-379.88"/>
<text text-anchor="start" x="287.5" y="-367.32" font-family="Helvetica,sans-Serif" font-size="9.00">Card.tsx</text>
</a>
</g>
</g>
<!-- components/display/Card.tsx&#45;&gt;components/base/View.tsx -->
<g id="edge22" class="edge">
<title>components/display/Card.tsx&#45;&gt;components/base/View.tsx</title>
<path fill="none" stroke="#000000" stroke-width="2" stroke-opacity="0.200000" d="M331.83,-368.04C348.17,-368.04 365.75,-368.04 365.75,-368.04 365.75,-368.04 365.75,-152.78 365.75,-152.78 365.75,-152.78 385.44,-152.78 385.44,-152.78"/>
<polygon fill="#000000" fill-opacity="0.200000" stroke="#000000" stroke-width="2" stroke-opacity="0.200000" points="385.44,-154.88 391.44,-152.78 385.44,-150.68 385.44,-154.88"/>
</g>
<!-- components/types/display.tsx -->
<g id="node16" class="node">
<title>components/types/display.tsx</title>
<g id="a_node16"><a xlink:href="components/types/display.tsx" xlink:title="display.tsx">
<path fill="#bbfeff" stroke="black" d="M542.96,-247.88C542.96,-247.88 496.04,-247.88 496.04,-247.88 493.08,-247.88 490.12,-244.92 490.12,-241.96 490.12,-241.96 490.12,-236.04 490.12,-236.04 490.12,-233.08 493.08,-230.12 496.04,-230.12 496.04,-230.12 542.96,-230.12 542.96,-230.12 545.92,-230.12 548.88,-233.08 548.88,-236.04 548.88,-236.04 548.88,-241.96 548.88,-241.96 548.88,-244.92 545.92,-247.88 542.96,-247.88"/>
<text text-anchor="start" x="498.12" y="-235.32" font-family="Helvetica,sans-Serif" font-size="9.00">display.tsx</text>
</a>
</g>
</g>
<!-- components/display/Card.tsx&#45;&gt;components/types/display.tsx -->
<g id="edge23" class="edge">
<title>components/display/Card.tsx&#45;&gt;components/types/display.tsx</title>
<path fill="none" stroke="#000000" stroke-width="2" stroke-opacity="0.200000" d="M331.83,-373.96C361.88,-373.96 405.83,-373.96 405.83,-373.96 405.83,-373.96 405.83,-234.93 405.83,-234.93 405.83,-234.93 480.61,-234.93 480.61,-234.93"/>
<polygon fill="#000000" fill-opacity="0.200000" stroke="#000000" stroke-width="2" stroke-opacity="0.200000" points="480.61,-237.03 486.61,-234.93 480.61,-232.83 480.61,-237.03"/>
</g>
<!-- components/display/ListSection.tsx -->
<g id="node17" class="node">
<title>components/display/ListSection.tsx</title>
<g id="a_node17"><a xlink:href="components/display/ListSection.tsx" xlink:title="ListSection.tsx">
<path fill="#bbfeff" stroke="black" d="M226.08,-349.88C226.08,-349.88 163.42,-349.88 163.42,-349.88 160.46,-349.88 157.5,-346.92 157.5,-343.96 157.5,-343.96 157.5,-338.04 157.5,-338.04 157.5,-335.08 160.46,-332.12 163.42,-332.12 163.42,-332.12 226.08,-332.12 226.08,-332.12 229.04,-332.12 232,-335.08 232,-338.04 232,-338.04 232,-343.96 232,-343.96 232,-346.92 229.04,-349.88 226.08,-349.88"/>
<text text-anchor="start" x="165.5" y="-337.32" font-family="Helvetica,sans-Serif" font-size="9.00">ListSection.tsx</text>
</a>
</g>
</g>
<!-- components/display/ListSection.tsx&#45;&gt;components/base/Text.tsx -->
<g id="edge25" class="edge">
<title>components/display/ListSection.tsx&#45;&gt;components/base/Text.tsx</title>
<path fill="none" stroke="#000000" stroke-width="2" stroke-opacity="0.200000" d="M232.47,-338.04C236.4,-338.04 239,-338.04 239,-338.04 239,-338.04 239,-137 239,-137 239,-137 421.88,-137 421.88,-137 421.88,-137 421.88,-136.31 421.88,-136.31"/>
<polygon fill="#000000" fill-opacity="0.200000" stroke="#000000" stroke-width="2" stroke-opacity="0.200000" points="423.98,-139.15 421.88,-133.15 419.78,-139.15 423.98,-139.15"/>
</g>
<!-- components/display/ListSection.tsx&#45;&gt;components/types/display.tsx -->
<g id="edge24" class="edge">
<title>components/display/ListSection.tsx&#45;&gt;components/types/display.tsx</title>
<path fill="none" stroke="#000000" stroke-width="2" stroke-opacity="0.200000" d="M232.45,-343.96C240.68,-343.96 247,-343.96 247,-343.96 247,-343.96 247,-231.72 247,-231.72 247,-231.72 480.79,-231.72 480.79,-231.72"/>
<polygon fill="#000000" fill-opacity="0.200000" stroke="#000000" stroke-width="2" stroke-opacity="0.200000" points="480.79,-233.83 486.79,-231.73 480.79,-229.63 480.79,-233.83"/>
</g>
<!-- components/display/MenuSection.tsx -->
<g id="node18" class="node">
<title>components/display/MenuSection.tsx</title>
<g id="a_node18"><a xlink:href="components/display/MenuSection.tsx" xlink:title="MenuSection.tsx">
<path fill="#bbfeff" stroke="black" d="M340.21,-349.88C340.21,-349.88 268.54,-349.88 268.54,-349.88 265.58,-349.88 262.62,-346.92 262.62,-343.96 262.62,-343.96 262.62,-338.04 262.62,-338.04 262.62,-335.08 265.58,-332.12 268.54,-332.12 268.54,-332.12 340.21,-332.12 340.21,-332.12 343.17,-332.12 346.12,-335.08 346.12,-338.04 346.12,-338.04 346.12,-343.96 346.12,-343.96 346.12,-346.92 343.17,-349.88 340.21,-349.88"/>
<text text-anchor="start" x="270.62" y="-337.32" font-family="Helvetica,sans-Serif" font-size="9.00">MenuSection.tsx</text>
</a>
</g>
</g>
<!-- components/display/MenuSection.tsx&#45;&gt;components/base/Text.tsx -->
<g id="edge27" class="edge">
<title>components/display/MenuSection.tsx&#45;&gt;components/base/Text.tsx</title>
<path fill="none" stroke="#000000" stroke-width="2" stroke-opacity="0.200000" d="M346.42,-338.04C355.83,-338.04 363.08,-338.04 363.08,-338.04 363.08,-338.04 363.08,-127.25 363.08,-127.25 363.08,-127.25 385.52,-127.25 385.52,-127.25"/>
<polygon fill="#000000" fill-opacity="0.200000" stroke="#000000" stroke-width="2" stroke-opacity="0.200000" points="385.52,-129.35 391.52,-127.25 385.52,-125.15 385.52,-129.35"/>
</g>
<!-- components/display/MenuSection.tsx&#45;&gt;components/types/display.tsx -->
<g id="edge26" class="edge">
<title>components/display/MenuSection.tsx&#45;&gt;components/types/display.tsx</title>
<path fill="none" stroke="#000000" stroke-opacity="0.200000" d="M346.62,-343.96C359.86,-343.96 371.08,-343.96 371.08,-343.96 371.08,-343.96 371.08,-233.32 371.08,-233.32 371.08,-233.32 482.31,-233.32 482.31,-233.32"/>
<polygon fill="none" stroke="#000000" stroke-opacity="0.200000" points="482.31,-235.43 488.31,-233.33 482.31,-231.23 482.31,-235.43"/>
</g>
<!-- components/display/ShadowBox.tsx -->
<g id="node19" class="node">
<title>components/display/ShadowBox.tsx</title>
<g id="a_node19"><a xlink:href="components/display/ShadowBox.tsx" xlink:title="ShadowBox.tsx">
<path fill="#bbfeff" stroke="black" d="M337.96,-409.88C337.96,-409.88 270.79,-409.88 270.79,-409.88 267.83,-409.88 264.88,-406.92 264.88,-403.96 264.88,-403.96 264.88,-398.04 264.88,-398.04 264.88,-395.08 267.83,-392.12 270.79,-392.12 270.79,-392.12 337.96,-392.12 337.96,-392.12 340.92,-392.12 343.88,-395.08 343.88,-398.04 343.88,-398.04 343.88,-403.96 343.88,-403.96 343.88,-406.92 340.92,-409.88 337.96,-409.88"/>
<text text-anchor="start" x="272.88" y="-397.32" font-family="Helvetica,sans-Serif" font-size="9.00">ShadowBox.tsx</text>
</a>
</g>
</g>
<!-- components/display/ShadowBox.tsx&#45;&gt;components/base/View.tsx -->
<g id="edge28" class="edge">
<title>components/display/ShadowBox.tsx&#45;&gt;components/base/View.tsx</title>
<path fill="none" stroke="#000000" stroke-width="2" stroke-opacity="0.200000" d="M344.21,-398.04C357.23,-398.04 368.42,-398.04 368.42,-398.04 368.42,-398.04 368.42,-156.32 368.42,-156.32 368.42,-156.32 385.49,-156.32 385.49,-156.32"/>
<polygon fill="#000000" fill-opacity="0.200000" stroke="#000000" stroke-width="2" stroke-opacity="0.200000" points="385.49,-158.43 391.49,-156.33 385.49,-154.23 385.49,-158.43"/>
</g>
<!-- components/display/ShadowBox.tsx&#45;&gt;components/types/display.tsx -->
<g id="edge29" class="edge">
<title>components/display/ShadowBox.tsx&#45;&gt;components/types/display.tsx</title>
<path fill="none" stroke="#000000" stroke-width="2" stroke-opacity="0.200000" d="M344.08,-403.96C383.44,-403.96 437.92,-403.96 437.92,-403.96 437.92,-403.96 437.92,-236.53 437.92,-236.53 437.92,-236.53 481.02,-236.53 481.02,-236.53"/>
<polygon fill="#000000" fill-opacity="0.200000" stroke="#000000" stroke-width="2" stroke-opacity="0.200000" points="481.02,-238.63 487.02,-236.53 481.02,-234.43 481.02,-238.63"/>
</g>
<!-- components/display/index.tsx -->
<g id="node20" class="node">
<title>components/display/index.tsx</title>
<g id="a_node20"><a xlink:href="components/display/index.tsx" xlink:title="index.tsx">
<path fill="#bbfeff" stroke="black" d="M215.83,-379.88C215.83,-379.88 173.67,-379.88 173.67,-379.88 170.71,-379.88 167.75,-376.92 167.75,-373.96 167.75,-373.96 167.75,-368.04 167.75,-368.04 167.75,-365.08 170.71,-362.12 173.67,-362.12 173.67,-362.12 215.83,-362.12 215.83,-362.12 218.79,-362.12 221.75,-365.08 221.75,-368.04 221.75,-368.04 221.75,-373.96 221.75,-373.96 221.75,-376.92 218.79,-379.88 215.83,-379.88"/>
<text text-anchor="start" x="176.75" y="-367.32" font-family="Helvetica,sans-Serif" font-size="9.00">index.tsx</text>
</a>
</g>
</g>
<!-- components/display/index.tsx&#45;&gt;components/display/Card.tsx -->
<g id="edge30" class="edge">
<title>components/display/index.tsx&#45;&gt;components/display/Card.tsx</title>
<path fill="none" stroke="#000000" stroke-width="2" stroke-opacity="0.200000" d="M222.13,-371C222.13,-371 269.79,-371 269.79,-371"/>
<polygon fill="#000000" fill-opacity="0.200000" stroke="#000000" stroke-width="2" stroke-opacity="0.200000" points="275.96,-373.1 269.96,-371 275.96,-368.9 275.96,-373.1"/>
</g>
<!-- components/display/index.tsx&#45;&gt;components/display/MenuSection.tsx -->
<g id="edge31" class="edge">
<title>components/display/index.tsx&#45;&gt;components/display/MenuSection.tsx</title>
<path fill="none" stroke="#000000" stroke-width="2" stroke-opacity="0.200000" d="M221.99,-366.56C243.19,-366.56 269.04,-366.56 269.04,-366.56 269.04,-366.56 269.04,-357.4 269.04,-357.4"/>
<polygon fill="#000000" fill-opacity="0.200000" stroke="#000000" stroke-width="2" stroke-opacity="0.200000" points="271.14,-351.23 269.04,-357.23 266.94,-351.23 271.14,-351.23"/>
</g>
<!-- components/display/index.tsx&#45;&gt;components/display/ShadowBox.tsx -->
<g id="edge32" class="edge">
<title>components/display/index.tsx&#45;&gt;components/display/ShadowBox.tsx</title>
<path fill="none" stroke="#000000" stroke-width="2" stroke-opacity="0.200000" d="M222.19,-375.44C244.82,-375.44 273.21,-375.44 273.21,-375.44 273.21,-375.44 273.21,-384.6 273.21,-384.6"/>
<polygon fill="#000000" fill-opacity="0.200000" stroke="#000000" stroke-width="2" stroke-opacity="0.200000" points="271.11,-390.77 273.21,-384.77 275.31,-390.77 271.11,-390.77"/>
</g>
<!-- components/feedback/PetLoadingOverlay.tsx -->
<g id="node21" class="node">
<title>components/feedback/PetLoadingOverlay.tsx</title>
<g id="a_node21"><a xlink:href="components/feedback/PetLoadingOverlay.tsx" xlink:title="no&#45;orphans">
<path fill="#ccffcc" stroke="orange" d="M126.96,-246.88C126.96,-246.88 30.54,-246.88 30.54,-246.88 27.58,-246.88 24.62,-243.92 24.62,-240.96 24.62,-240.96 24.62,-235.04 24.62,-235.04 24.62,-232.08 27.58,-229.12 30.54,-229.12 30.54,-229.12 126.96,-229.12 126.96,-229.12 129.92,-229.12 132.88,-232.08 132.88,-235.04 132.88,-235.04 132.88,-240.96 132.88,-240.96 132.88,-243.92 129.92,-246.88 126.96,-246.88"/>
<text text-anchor="start" x="32.62" y="-234.32" font-family="Helvetica,sans-Serif" font-size="9.00" fill="orange">PetLoadingOverlay.tsx</text>
</a>
</g>
</g>
<!-- components/media/CameraButton.tsx -->
<g id="node22" class="node">
<title>components/media/CameraButton.tsx</title>
<g id="a_node22"><a xlink:href="components/media/CameraButton.tsx" xlink:title="CameraButton.tsx">
<path fill="#bbfeff" stroke="black" d="M342.83,-289.88C342.83,-289.88 265.92,-289.88 265.92,-289.88 262.96,-289.88 260,-286.92 260,-283.96 260,-283.96 260,-278.04 260,-278.04 260,-275.08 262.96,-272.12 265.92,-272.12 265.92,-272.12 342.83,-272.12 342.83,-272.12 345.79,-272.12 348.75,-275.08 348.75,-278.04 348.75,-278.04 348.75,-283.96 348.75,-283.96 348.75,-286.92 345.79,-289.88 342.83,-289.88"/>
<text text-anchor="start" x="268" y="-277.32" font-family="Helvetica,sans-Serif" font-size="9.00">CameraButton.tsx</text>
</a>
</g>
</g>
<!-- components/media/CameraButton.tsx&#45;&gt;components/base/Text.tsx -->
<g id="edge34" class="edge">
<title>components/media/CameraButton.tsx&#45;&gt;components/base/Text.tsx</title>
<path fill="none" stroke="#000000" stroke-width="2" stroke-opacity="0.200000" d="M349.08,-281.88C355.73,-281.88 360.42,-281.88 360.42,-281.88 360.42,-281.88 360.42,-124.62 360.42,-124.62 360.42,-124.62 385.35,-124.62 385.35,-124.62"/>
<polygon fill="#000000" fill-opacity="0.200000" stroke="#000000" stroke-width="2" stroke-opacity="0.200000" points="385.35,-126.73 391.35,-124.63 385.35,-122.53 385.35,-126.73"/>
</g>
<!-- components/types/media.tsx -->
<g id="node23" class="node">
<title>components/types/media.tsx</title>
<g id="a_node23"><a xlink:href="components/types/media.tsx" xlink:title="media.tsx">
<path fill="#bbfeff" stroke="black" d="M541.08,-217.88C541.08,-217.88 497.92,-217.88 497.92,-217.88 494.96,-217.88 492,-214.92 492,-211.96 492,-211.96 492,-206.04 492,-206.04 492,-203.08 494.96,-200.12 497.92,-200.12 497.92,-200.12 541.08,-200.12 541.08,-200.12 544.04,-200.12 547,-203.08 547,-206.04 547,-206.04 547,-211.96 547,-211.96 547,-214.92 544.04,-217.88 541.08,-217.88"/>
<text text-anchor="start" x="500" y="-205.32" font-family="Helvetica,sans-Serif" font-size="9.00">media.tsx</text>
</a>
</g>
</g>
<!-- components/media/CameraButton.tsx&#45;&gt;components/types/media.tsx -->
<g id="edge33" class="edge">
<title>components/media/CameraButton.tsx&#45;&gt;components/types/media.tsx</title>
<path fill="none" stroke="#000000" stroke-width="2" stroke-opacity="0.200000" d="M348.86,-285.88C401.09,-285.88 480.67,-285.88 480.67,-285.88 480.67,-285.88 480.67,-207.96 480.67,-207.96 480.67,-207.96 482.66,-207.96 482.66,-207.96"/>
<polygon fill="#000000" fill-opacity="0.200000" stroke="#000000" stroke-width="2" stroke-opacity="0.200000" points="482.66,-210.06 488.66,-207.96 482.66,-205.86 482.66,-210.06"/>
</g>
<!-- components/media/ImagePickerButton.tsx -->
<g id="node24" class="node">
<title>components/media/ImagePickerButton.tsx</title>
<g id="a_node24"><a xlink:href="components/media/ImagePickerButton.tsx" xlink:title="ImagePickerButton.tsx">
<path fill="#bbfeff" stroke="black" d="M351.83,-259.88C351.83,-259.88 256.92,-259.88 256.92,-259.88 253.96,-259.88 251,-256.92 251,-253.96 251,-253.96 251,-248.04 251,-248.04 251,-245.08 253.96,-242.12 256.92,-242.12 256.92,-242.12 351.83,-242.12 351.83,-242.12 354.79,-242.12 357.75,-245.08 357.75,-248.04 357.75,-248.04 357.75,-253.96 357.75,-253.96 357.75,-256.92 354.79,-259.88 351.83,-259.88"/>
<text text-anchor="start" x="259" y="-247.32" font-family="Helvetica,sans-Serif" font-size="9.00">ImagePickerButton.tsx</text>
</a>
</g>
</g>
<!-- components/media/ImagePickerButton.tsx&#45;&gt;components/base/Text.tsx -->
<g id="edge36" class="edge">
<title>components/media/ImagePickerButton.tsx&#45;&gt;components/base/Text.tsx</title>
<path fill="none" stroke="#000000" stroke-width="2" stroke-opacity="0.200000" d="M352.88,-241.72C352.88,-212.14 352.88,-122 352.88,-122 352.88,-122 385.58,-122 385.58,-122"/>
<polygon fill="#000000" fill-opacity="0.200000" stroke="#000000" stroke-width="2" stroke-opacity="0.200000" points="385.58,-124.1 391.58,-122 385.58,-119.9 385.58,-124.1"/>
</g>
<!-- components/media/ImagePickerButton.tsx&#45;&gt;components/types/media.tsx -->
<g id="edge35" class="edge">
<title>components/media/ImagePickerButton.tsx&#45;&gt;components/types/media.tsx</title>
<path fill="none" stroke="#000000" stroke-width="2" stroke-opacity="0.200000" d="M358,-253.88C408.13,-253.88 475.33,-253.88 475.33,-253.88 475.33,-253.88 475.33,-204.04 475.33,-204.04 475.33,-204.04 482.5,-204.04 482.5,-204.04"/>
<polygon fill="#000000" fill-opacity="0.200000" stroke="#000000" stroke-width="2" stroke-opacity="0.200000" points="482.5,-206.14 488.5,-204.04 482.5,-201.94 482.5,-206.14"/>
</g>
<!-- components/types/feedback.tsx -->
<g id="node25" class="node">
<title>components/types/feedback.tsx</title>
<g id="a_node25"><a xlink:href="components/types/feedback.tsx" xlink:title="no&#45;orphans">
<path fill="#ccffcc" stroke="orange" d="M547.08,-277.88C547.08,-277.88 491.92,-277.88 491.92,-277.88 488.96,-277.88 486,-274.92 486,-271.96 486,-271.96 486,-266.04 486,-266.04 486,-263.08 488.96,-260.12 491.92,-260.12 491.92,-260.12 547.08,-260.12 547.08,-260.12 550.04,-260.12 553,-263.08 553,-266.04 553,-266.04 553,-271.96 553,-271.96 553,-274.92 550.04,-277.88 547.08,-277.88"/>
<text text-anchor="start" x="494" y="-265.32" font-family="Helvetica,sans-Serif" font-size="9.00" fill="orange">feedback.tsx</text>
</a>
</g>
</g>
<!-- components/useClientOnlyValue.ts -->
<g id="node26" class="node">
<title>components/useClientOnlyValue.ts</title>
<g id="a_node26"><a xlink:href="components/useClientOnlyValue.ts" xlink:title="no&#45;orphans">
<path fill="#ccffcc" stroke="orange" d="M125.83,-367.88C125.83,-367.88 31.67,-367.88 31.67,-367.88 28.71,-367.88 25.75,-364.92 25.75,-361.96 25.75,-361.96 25.75,-356.04 25.75,-356.04 25.75,-353.08 28.71,-350.12 31.67,-350.12 31.67,-350.12 125.83,-350.12 125.83,-350.12 128.79,-350.12 131.75,-353.08 131.75,-356.04 131.75,-356.04 131.75,-361.96 131.75,-361.96 131.75,-364.92 128.79,-367.88 125.83,-367.88"/>
<text text-anchor="start" x="33.75" y="-355.32" font-family="Helvetica,sans-Serif" font-size="9.00" fill="orange">useClientOnlyValue.ts</text>
</a>
</g>
</g>
<!-- components/useClientOnlyValue.web.ts -->
<g id="node27" class="node">
<title>components/useClientOnlyValue.web.ts</title>
<g id="a_node27"><a xlink:href="components/useClientOnlyValue.web.ts" xlink:title="no&#45;orphans">
<path fill="#ccffcc" stroke="orange" d="M135.58,-401.88C135.58,-401.88 21.92,-401.88 21.92,-401.88 18.96,-401.88 16,-398.92 16,-395.96 16,-395.96 16,-390.04 16,-390.04 16,-387.08 18.96,-384.12 21.92,-384.12 21.92,-384.12 135.58,-384.12 135.58,-384.12 138.54,-384.12 141.5,-387.08 141.5,-390.04 141.5,-390.04 141.5,-395.96 141.5,-395.96 141.5,-398.92 138.54,-401.88 135.58,-401.88"/>
<text text-anchor="start" x="24" y="-389.32" font-family="Helvetica,sans-Serif" font-size="9.00" fill="orange">useClientOnlyValue.web.ts</text>
</a>
</g>
</g>
<!-- components/useColorScheme.web.ts -->
<g id="node28" class="node">
<title>components/useColorScheme.web.ts</title>
<g id="a_node28"><a xlink:href="components/useColorScheme.web.ts" xlink:title="no&#45;orphans">
<path fill="#ccffcc" stroke="orange" d="M130.71,-433.88C130.71,-433.88 26.79,-433.88 26.79,-433.88 23.83,-433.88 20.88,-430.92 20.88,-427.96 20.88,-427.96 20.88,-422.04 20.88,-422.04 20.88,-419.08 23.83,-416.12 26.79,-416.12 26.79,-416.12 130.71,-416.12 130.71,-416.12 133.67,-416.12 136.62,-419.08 136.62,-422.04 136.62,-422.04 136.62,-427.96 136.62,-427.96 136.62,-430.92 133.67,-433.88 130.71,-433.88"/>
<text text-anchor="start" x="28.88" y="-421.32" font-family="Helvetica,sans-Serif" font-size="9.00" fill="orange">useColorScheme.web.ts</text>
</a>
</g>
</g>
</g>
</svg>
