<?xml version="1.0" encoding="UTF-8" standalone="no"?>
<!DOCTYPE svg PUBLIC "-//W3C//DTD SVG 1.1//EN"
 "http://www.w3.org/Graphics/SVG/1.1/DTD/svg11.dtd">
<!-- Generated by graphviz version 12.2.0 (20241103.1931)
 -->
<!-- Title: dependency&#45;cruiser output Pages: 1 -->
<svg width="531pt" height="452pt"
 viewBox="0.00 0.00 530.50 452.00" xmlns="http://www.w3.org/2000/svg" xmlns:xlink="http://www.w3.org/1999/xlink">
<g id="graph0" class="graph" transform="scale(1 1) rotate(0) translate(4 448)">
<title>dependency&#45;cruiser output</title>
<polygon fill="white" stroke="none" points="-4,4 -4,-448 526.5,-448 526.5,4 -4,4"/>
<g id="clust1" class="cluster">
<title>cluster_features</title>
<path fill="#ffffff" stroke="black" stroke-width="2" d="M20,-8C20,-8 502.5,-8 502.5,-8 508.5,-8 514.5,-14 514.5,-20 514.5,-20 514.5,-424 514.5,-424 514.5,-430 508.5,-436 502.5,-436 502.5,-436 20,-436 20,-436 14,-436 8,-430 8,-424 8,-424 8,-20 8,-20 8,-14 14,-8 20,-8"/>
<text text-anchor="middle" x="261.25" y="-423.45" font-family="Helvetica,sans-Serif" font-weight="bold" font-size="9.00">features</text>
</g>
<g id="clust2" class="cluster">
<title>cluster_features/dashboard</title>
<path fill="#ffffff" stroke="black" stroke-width="2" d="M44.62,-16C44.62,-16 494.5,-16 494.5,-16 500.5,-16 506.5,-22 506.5,-28 506.5,-28 506.5,-180 506.5,-180 506.5,-186 500.5,-192 494.5,-192 494.5,-192 44.62,-192 44.62,-192 38.63,-192 32.62,-186 32.62,-180 32.62,-180 32.62,-28 32.62,-28 32.62,-22 38.62,-16 44.62,-16"/>
<text text-anchor="middle" x="269.56" y="-179.45" font-family="Helvetica,sans-Serif" font-weight="bold" font-size="9.00">dashboard</text>
</g>
<g id="clust3" class="cluster">
<title>cluster_features/dashboard/components</title>
<path fill="#ffffff" stroke="black" stroke-width="2" d="M144,-84C144,-84 356.88,-84 356.88,-84 362.88,-84 368.88,-90 368.88,-96 368.88,-96 368.88,-154 368.88,-154 368.88,-160 362.88,-166 356.88,-166 356.88,-166 144,-166 144,-166 138,-166 132,-160 132,-154 132,-154 132,-96 132,-96 132,-90 138,-84 144,-84"/>
<text text-anchor="middle" x="250.44" y="-153.45" font-family="Helvetica,sans-Serif" font-weight="bold" font-size="9.00">components</text>
</g>
<g id="clust4" class="cluster">
<title>cluster_features/dashboard/hooks</title>
<path fill="#ffffff" stroke="black" stroke-width="2" d="M269,-24C269,-24 382.75,-24 382.75,-24 388.75,-24 394.75,-30 394.75,-36 394.75,-36 394.75,-64 394.75,-64 394.75,-70 388.75,-76 382.75,-76 382.75,-76 269,-76 269,-76 263,-76 257,-70 257,-64 257,-64 257,-36 257,-36 257,-30 263,-24 269,-24"/>
<text text-anchor="middle" x="325.88" y="-63.45" font-family="Helvetica,sans-Serif" font-weight="bold" font-size="9.00">hooks</text>
</g>
<g id="clust5" class="cluster">
<title>cluster_features/dashboard/types</title>
<path fill="#ffffff" stroke="black" stroke-width="2" d="M414.75,-95C414.75,-95 486.5,-95 486.5,-95 492.5,-95 498.5,-101 498.5,-107 498.5,-107 498.5,-135 498.5,-135 498.5,-141 492.5,-147 486.5,-147 486.5,-147 414.75,-147 414.75,-147 408.75,-147 402.75,-141 402.75,-135 402.75,-135 402.75,-107 402.75,-107 402.75,-101 408.75,-95 414.75,-95"/>
<text text-anchor="middle" x="450.62" y="-134.45" font-family="Helvetica,sans-Serif" font-weight="bold" font-size="9.00">types</text>
</g>
<g id="clust6" class="cluster">
<title>cluster_features/history</title>
<path fill="#ffffff" stroke="black" stroke-width="2" d="M28,-200C28,-200 112,-200 112,-200 118,-200 124,-206 124,-212 124,-212 124,-274 124,-274 124,-280 118,-286 112,-286 112,-286 28,-286 28,-286 22,-286 16,-280 16,-274 16,-274 16,-212 16,-212 16,-206 22,-200 28,-200"/>
<text text-anchor="middle" x="70" y="-273.45" font-family="Helvetica,sans-Serif" font-weight="bold" font-size="9.00">history</text>
</g>
<g id="clust7" class="cluster">
<title>cluster_features/history/components</title>
<path fill="#ffffff" stroke="black" stroke-width="2" d="M36,-208C36,-208 104,-208 104,-208 110,-208 116,-214 116,-220 116,-220 116,-248 116,-248 116,-254 110,-260 104,-260 104,-260 36,-260 36,-260 30,-260 24,-254 24,-248 24,-248 24,-220 24,-220 24,-214 30,-208 36,-208"/>
<text text-anchor="middle" x="70" y="-247.45" font-family="Helvetica,sans-Serif" font-weight="bold" font-size="9.00">components</text>
</g>
<g id="clust8" class="cluster">
<title>cluster_features/media</title>
<path fill="#ffffff" stroke="black" stroke-width="2" d="M39,-294C39,-294 367.5,-294 367.5,-294 373.5,-294 379.5,-300 379.5,-306 379.5,-306 379.5,-398 379.5,-398 379.5,-404 373.5,-410 367.5,-410 367.5,-410 39,-410 39,-410 33,-410 27,-404 27,-398 27,-398 27,-306 27,-306 27,-300 33,-294 39,-294"/>
<text text-anchor="middle" x="203.25" y="-397.45" font-family="Helvetica,sans-Serif" font-weight="bold" font-size="9.00">media</text>
</g>
<g id="clust9" class="cluster">
<title>cluster_features/media/components</title>
<path fill="#ffffff" stroke="black" stroke-width="2" d="M47,-302C47,-302 234.12,-302 234.12,-302 240.12,-302 246.12,-308 246.12,-314 246.12,-314 246.12,-372 246.12,-372 246.12,-378 240.12,-384 234.12,-384 234.12,-384 47,-384 47,-384 41,-384 35,-378 35,-372 35,-372 35,-314 35,-314 35,-308 41,-302 47,-302"/>
<text text-anchor="middle" x="140.56" y="-371.45" font-family="Helvetica,sans-Serif" font-weight="bold" font-size="9.00">components</text>
</g>
<g id="clust10" class="cluster">
<title>cluster_features/media/types</title>
<path fill="#ffffff" stroke="black" stroke-width="2" d="M292.25,-317C292.25,-317 359.5,-317 359.5,-317 365.5,-317 371.5,-323 371.5,-329 371.5,-329 371.5,-357 371.5,-357 371.5,-363 365.5,-369 359.5,-369 359.5,-369 292.25,-369 292.25,-369 286.25,-369 280.25,-363 280.25,-357 280.25,-357 280.25,-329 280.25,-329 280.25,-323 286.25,-317 292.25,-317"/>
<text text-anchor="middle" x="325.88" y="-356.45" font-family="Helvetica,sans-Serif" font-weight="bold" font-size="9.00">types</text>
</g>
<!-- features/dashboard/Screen.tsx -->
<g id="node1" class="node">
<title>features/dashboard/Screen.tsx</title>
<g id="a_node1"><a xlink:href="features/dashboard/Screen.tsx" xlink:title="Screen.tsx">
<path fill="#bbfeff" stroke="black" d="M93.46,-135.88C93.46,-135.88 46.54,-135.88 46.54,-135.88 43.58,-135.88 40.62,-132.92 40.62,-129.96 40.62,-129.96 40.62,-124.04 40.62,-124.04 40.62,-121.08 43.58,-118.12 46.54,-118.12 46.54,-118.12 93.46,-118.12 93.46,-118.12 96.42,-118.12 99.38,-121.08 99.38,-124.04 99.38,-124.04 99.38,-129.96 99.38,-129.96 99.38,-132.92 96.42,-135.88 93.46,-135.88"/>
<text text-anchor="start" x="48.62" y="-123.33" font-family="Helvetica,sans-Serif" font-size="9.00">Screen.tsx</text>
</a>
</g>
</g>
<!-- features/dashboard/components/AnimatedStatsCard.tsx -->
<g id="node2" class="node">
<title>features/dashboard/components/AnimatedStatsCard.tsx</title>
<g id="a_node2"><a xlink:href="features/dashboard/components/AnimatedStatsCard.tsx" xlink:title="AnimatedStatsCard.tsx">
<path fill="#bbfeff" stroke="black" d="M243.08,-109.88C243.08,-109.88 145.92,-109.88 145.92,-109.88 142.96,-109.88 140,-106.92 140,-103.96 140,-103.96 140,-98.04 140,-98.04 140,-95.08 142.96,-92.12 145.92,-92.12 145.92,-92.12 243.08,-92.12 243.08,-92.12 246.04,-92.12 249,-95.08 249,-98.04 249,-98.04 249,-103.96 249,-103.96 249,-106.92 246.04,-109.88 243.08,-109.88"/>
<text text-anchor="start" x="148" y="-97.33" font-family="Helvetica,sans-Serif" font-size="9.00">AnimatedStatsCard.tsx</text>
</a>
</g>
</g>
<!-- features/dashboard/Screen.tsx&#45;&gt;features/dashboard/components/AnimatedStatsCard.tsx -->
<g id="edge1" class="edge">
<title>features/dashboard/Screen.tsx&#45;&gt;features/dashboard/components/AnimatedStatsCard.tsx</title>
<g id="a_edge1"><a xlink:title="no&#45;feature&#45;to&#45;feature">
<path fill="none" stroke="red" stroke-width="2" d="M99.81,-129C120.9,-129 145.44,-129 145.44,-129 145.44,-129 145.44,-119.2 145.44,-119.2"/>
<polygon fill="red" stroke="red" stroke-width="2" points="147.54,-119.2 145.44,-113.2 143.34,-119.2 147.54,-119.2"/>
</a>
</g>
<text text-anchor="middle" x="169.53" y="-120.45" font-family="Helvetica,sans-Serif" font-size="9.00" fill="red">no&#45;feature&#45;to&#45;feature</text>
</g>
<!-- features/dashboard/components/StatsCard.tsx -->
<g id="node3" class="node">
<title>features/dashboard/components/StatsCard.tsx</title>
<g id="a_node3"><a xlink:href="features/dashboard/components/StatsCard.tsx" xlink:title="StatsCard.tsx">
<path fill="#bbfeff" stroke="black" d="M354.96,-131.88C354.96,-131.88 296.79,-131.88 296.79,-131.88 293.83,-131.88 290.88,-128.92 290.88,-125.96 290.88,-125.96 290.88,-120.04 290.88,-120.04 290.88,-117.08 293.83,-114.12 296.79,-114.12 296.79,-114.12 354.96,-114.12 354.96,-114.12 357.92,-114.12 360.88,-117.08 360.88,-120.04 360.88,-120.04 360.88,-125.96 360.88,-125.96 360.88,-128.92 357.92,-131.88 354.96,-131.88"/>
<text text-anchor="start" x="298.88" y="-119.33" font-family="Helvetica,sans-Serif" font-size="9.00">StatsCard.tsx</text>
</a>
</g>
</g>
<!-- features/dashboard/Screen.tsx&#45;&gt;features/dashboard/components/StatsCard.tsx -->
<g id="edge2" class="edge">
<title>features/dashboard/Screen.tsx&#45;&gt;features/dashboard/components/StatsCard.tsx</title>
<g id="a_edge2"><a xlink:title="no&#45;feature&#45;to&#45;feature">
<path fill="none" stroke="red" stroke-width="2" d="M70,-136.35C70,-151.08 70,-178 70,-178 70,-178 325.88,-178 325.88,-178 325.88,-178 325.88,-141.11 325.88,-141.11"/>
<polygon fill="red" stroke="red" stroke-width="2" points="327.98,-141.11 325.88,-135.11 323.78,-141.11 327.98,-141.11"/>
</a>
</g>
<text text-anchor="middle" x="153.56" y="-169.45" font-family="Helvetica,sans-Serif" font-size="9.00" fill="red">no&#45;feature&#45;to&#45;feature</text>
</g>
<!-- features/dashboard/components/AnimatedStatsCard.tsx&#45;&gt;features/dashboard/components/StatsCard.tsx -->
<g id="edge5" class="edge">
<title>features/dashboard/components/AnimatedStatsCard.tsx&#45;&gt;features/dashboard/components/StatsCard.tsx</title>
<g id="a_edge5"><a xlink:title="no&#45;feature&#45;to&#45;feature">
<path fill="none" stroke="red" stroke-width="2" d="M243.56,-110.09C243.56,-117.59 243.56,-127 243.56,-127 243.56,-127 281.46,-127 281.46,-127"/>
<polygon fill="red" stroke="red" stroke-width="2" points="281.46,-129.1 287.46,-127 281.46,-124.9 281.46,-129.1"/>
</a>
</g>
<text text-anchor="middle" x="296.06" y="-128.2" font-family="Helvetica,sans-Serif" font-size="9.00" fill="red">no&#45;feature&#45;to&#45;feature</text>
</g>
<!-- features/dashboard/hooks/useStatsCardAnimation.ts -->
<g id="node4" class="node">
<title>features/dashboard/hooks/useStatsCardAnimation.ts</title>
<g id="a_node4"><a xlink:href="features/dashboard/hooks/useStatsCardAnimation.ts" xlink:title="useStatsCardAnimation.ts">
<path fill="#ddfeff" stroke="black" d="M380.83,-49.88C380.83,-49.88 270.92,-49.88 270.92,-49.88 267.96,-49.88 265,-46.92 265,-43.96 265,-43.96 265,-38.04 265,-38.04 265,-35.08 267.96,-32.12 270.92,-32.12 270.92,-32.12 380.83,-32.12 380.83,-32.12 383.79,-32.12 386.75,-35.08 386.75,-38.04 386.75,-38.04 386.75,-43.96 386.75,-43.96 386.75,-46.92 383.79,-49.88 380.83,-49.88"/>
<text text-anchor="start" x="273" y="-37.33" font-family="Helvetica,sans-Serif" font-size="9.00">useStatsCardAnimation.ts</text>
</a>
</g>
</g>
<!-- features/dashboard/components/AnimatedStatsCard.tsx&#45;&gt;features/dashboard/hooks/useStatsCardAnimation.ts -->
<g id="edge3" class="edge">
<title>features/dashboard/components/AnimatedStatsCard.tsx&#45;&gt;features/dashboard/hooks/useStatsCardAnimation.ts</title>
<g id="a_edge3"><a xlink:title="no&#45;feature&#45;to&#45;feature">
<path fill="none" stroke="red" stroke-width="2" d="M249.28,-95.79C264.34,-95.79 276.62,-95.79 276.62,-95.79 276.62,-95.79 276.62,-59.07 276.62,-59.07"/>
<polygon fill="red" stroke="red" stroke-width="2" points="278.73,-59.07 276.63,-53.07 274.53,-59.07 278.73,-59.07"/>
</a>
</g>
<text text-anchor="middle" x="234.62" y="-82.56" font-family="Helvetica,sans-Serif" font-size="9.00" fill="red">no&#45;feature&#45;to&#45;feature</text>
</g>
<!-- features/dashboard/types/components.tsx -->
<g id="node5" class="node">
<title>features/dashboard/types/components.tsx</title>
<g id="a_node5"><a xlink:href="features/dashboard/types/components.tsx" xlink:title="components.tsx">
<path fill="#bbfeff" stroke="black" d="M484.58,-120.88C484.58,-120.88 416.67,-120.88 416.67,-120.88 413.71,-120.88 410.75,-117.92 410.75,-114.96 410.75,-114.96 410.75,-109.04 410.75,-109.04 410.75,-106.08 413.71,-103.12 416.67,-103.12 416.67,-103.12 484.58,-103.12 484.58,-103.12 487.54,-103.12 490.5,-106.08 490.5,-109.04 490.5,-109.04 490.5,-114.96 490.5,-114.96 490.5,-117.92 487.54,-120.88 484.58,-120.88"/>
<text text-anchor="start" x="418.75" y="-108.33" font-family="Helvetica,sans-Serif" font-size="9.00">components.tsx</text>
</a>
</g>
</g>
<!-- features/dashboard/components/AnimatedStatsCard.tsx&#45;&gt;features/dashboard/types/components.tsx -->
<g id="edge4" class="edge">
<title>features/dashboard/components/AnimatedStatsCard.tsx&#45;&gt;features/dashboard/types/components.tsx</title>
<g id="a_edge4"><a xlink:title="no&#45;feature&#45;to&#45;feature">
<path fill="none" stroke="red" stroke-width="2" d="M249.45,-99.46C324.7,-99.46 450.62,-99.46 450.62,-99.46 450.62,-99.46 450.62,-99.8 450.62,-99.8"/>
<polygon fill="red" stroke="red" stroke-width="2" points="448.53,-93.86 450.63,-99.86 452.73,-93.86 448.53,-93.86"/>
</a>
</g>
<text text-anchor="middle" x="392.21" y="-90.91" font-family="Helvetica,sans-Serif" font-size="9.00" fill="red">no&#45;feature&#45;to&#45;feature</text>
</g>
<!-- features/dashboard/components/StatsCard.tsx&#45;&gt;features/dashboard/types/components.tsx -->
<g id="edge6" class="edge">
<title>features/dashboard/components/StatsCard.tsx&#45;&gt;features/dashboard/types/components.tsx</title>
<g id="a_edge6"><a xlink:title="no&#45;feature&#45;to&#45;feature">
<path fill="none" stroke="red" stroke-width="2" d="M361.29,-126.38C398.17,-126.38 450.62,-126.38 450.62,-126.38 450.62,-126.38 450.62,-125.86 450.62,-125.86"/>
<polygon fill="red" stroke="red" stroke-width="2" points="452.73,-130.21 450.63,-124.21 448.53,-130.21 452.73,-130.21"/>
</a>
</g>
<text text-anchor="middle" x="448.22" y="-125.14" font-family="Helvetica,sans-Serif" font-size="9.00" fill="red">no&#45;feature&#45;to&#45;feature</text>
</g>
<!-- features/dashboard/components/index.tsx -->
<g id="node6" class="node">
<title>features/dashboard/components/index.tsx</title>
<g id="a_node6"><a xlink:href="features/dashboard/components/index.tsx" xlink:title="no&#45;orphans">
<path fill="#ccffcc" stroke="orange" d="M215.58,-139.88C215.58,-139.88 173.42,-139.88 173.42,-139.88 170.46,-139.88 167.5,-136.92 167.5,-133.96 167.5,-133.96 167.5,-128.04 167.5,-128.04 167.5,-125.08 170.46,-122.12 173.42,-122.12 173.42,-122.12 215.58,-122.12 215.58,-122.12 218.54,-122.12 221.5,-125.08 221.5,-128.04 221.5,-128.04 221.5,-133.96 221.5,-133.96 221.5,-136.92 218.54,-139.88 215.58,-139.88"/>
<text text-anchor="start" x="176.5" y="-127.33" font-family="Helvetica,sans-Serif" font-size="9.00" fill="orange">index.tsx</text>
</a>
</g>
</g>
<!-- features/history/components/EmptyState.tsx -->
<g id="node7" class="node">
<title>features/history/components/EmptyState.tsx</title>
<g id="a_node7"><a xlink:href="features/history/components/EmptyState.tsx" xlink:title="no&#45;orphans">
<path fill="#ccffcc" stroke="orange" d="M102.08,-233.88C102.08,-233.88 37.92,-233.88 37.92,-233.88 34.96,-233.88 32,-230.92 32,-227.96 32,-227.96 32,-222.04 32,-222.04 32,-219.08 34.96,-216.12 37.92,-216.12 37.92,-216.12 102.08,-216.12 102.08,-216.12 105.04,-216.12 108,-219.08 108,-222.04 108,-222.04 108,-227.96 108,-227.96 108,-230.92 105.04,-233.88 102.08,-233.88"/>
<text text-anchor="start" x="40" y="-221.32" font-family="Helvetica,sans-Serif" font-size="9.00" fill="orange">EmptyState.tsx</text>
</a>
</g>
</g>
<!-- features/media/components/ImageInput.tsx -->
<g id="node8" class="node">
<title>features/media/components/ImageInput.tsx</title>
<g id="a_node8"><a xlink:href="features/media/components/ImageInput.tsx" xlink:title="ImageInput.tsx">
<path fill="#bbfeff" stroke="black" d="M226.21,-327.88C226.21,-327.88 162.79,-327.88 162.79,-327.88 159.83,-327.88 156.88,-324.92 156.88,-321.96 156.88,-321.96 156.88,-316.04 156.88,-316.04 156.88,-313.08 159.83,-310.12 162.79,-310.12 162.79,-310.12 226.21,-310.12 226.21,-310.12 229.17,-310.12 232.12,-313.08 232.12,-316.04 232.12,-316.04 232.12,-321.96 232.12,-321.96 232.12,-324.92 229.17,-327.88 226.21,-327.88"/>
<text text-anchor="start" x="164.88" y="-315.32" font-family="Helvetica,sans-Serif" font-size="9.00">ImageInput.tsx</text>
</a>
</g>
</g>
<!-- features/media/types/components.ts -->
<g id="node9" class="node">
<title>features/media/types/components.ts</title>
<g id="a_node9"><a xlink:href="features/media/types/components.ts" xlink:title="components.ts">
<path fill="#ddfeff" stroke="black" d="M357.58,-342.88C357.58,-342.88 294.17,-342.88 294.17,-342.88 291.21,-342.88 288.25,-339.92 288.25,-336.96 288.25,-336.96 288.25,-331.04 288.25,-331.04 288.25,-328.08 291.21,-325.12 294.17,-325.12 294.17,-325.12 357.58,-325.12 357.58,-325.12 360.54,-325.12 363.5,-328.08 363.5,-331.04 363.5,-331.04 363.5,-336.96 363.5,-336.96 363.5,-339.92 360.54,-342.88 357.58,-342.88"/>
<text text-anchor="start" x="296.25" y="-330.32" font-family="Helvetica,sans-Serif" font-size="9.00">components.ts</text>
</a>
</g>
</g>
<!-- features/media/components/ImageInput.tsx&#45;&gt;features/media/types/components.ts -->
<g id="edge7" class="edge">
<title>features/media/components/ImageInput.tsx&#45;&gt;features/media/types/components.ts</title>
<g id="a_edge7"><a xlink:title="no&#45;feature&#45;to&#45;feature">
<path fill="none" stroke="red" stroke-width="2" d="M194.5,-328.24C194.5,-331.33 194.5,-334 194.5,-334 194.5,-334 278.85,-334 278.85,-334"/>
<polygon fill="red" stroke="red" stroke-width="2" points="278.85,-336.1 284.85,-334 278.85,-331.9 278.85,-336.1"/>
</a>
</g>
<text text-anchor="middle" x="191.8" y="-325.45" font-family="Helvetica,sans-Serif" font-size="9.00" fill="red">no&#45;feature&#45;to&#45;feature</text>
</g>
<!-- features/media/components/ImagePreview.tsx -->
<g id="node10" class="node">
<title>features/media/components/ImagePreview.tsx</title>
<g id="a_node10"><a xlink:href="features/media/components/ImagePreview.tsx" xlink:title="ImagePreview.tsx">
<path fill="#bbfeff" stroke="black" d="M232.21,-357.88C232.21,-357.88 156.79,-357.88 156.79,-357.88 153.83,-357.88 150.88,-354.92 150.88,-351.96 150.88,-351.96 150.88,-346.04 150.88,-346.04 150.88,-343.08 153.83,-340.12 156.79,-340.12 156.79,-340.12 232.21,-340.12 232.21,-340.12 235.17,-340.12 238.12,-343.08 238.12,-346.04 238.12,-346.04 238.12,-351.96 238.12,-351.96 238.12,-354.92 235.17,-357.88 232.21,-357.88"/>
<text text-anchor="start" x="158.88" y="-345.32" font-family="Helvetica,sans-Serif" font-size="9.00">ImagePreview.tsx</text>
</a>
</g>
</g>
<!-- features/media/components/ImagePreview.tsx&#45;&gt;features/media/types/components.ts -->
<g id="edge8" class="edge">
<title>features/media/components/ImagePreview.tsx&#45;&gt;features/media/types/components.ts</title>
<g id="a_edge8"><a xlink:title="no&#45;feature&#45;to&#45;feature">
<path fill="none" stroke="red" stroke-width="2" d="M238.61,-350.38C276.78,-350.38 325.88,-350.38 325.88,-350.38 325.88,-350.38 325.88,-349.67 325.88,-349.67"/>
<polygon fill="red" stroke="red" stroke-width="2" points="327.98,-352.36 325.88,-346.36 323.78,-352.36 327.98,-352.36"/>
</a>
</g>
<text text-anchor="middle" x="324.6" y="-346.7" font-family="Helvetica,sans-Serif" font-size="9.00" fill="red">no&#45;feature&#45;to&#45;feature</text>
</g>
<!-- features/media/components/index.tsx -->
<g id="node11" class="node">
<title>features/media/components/index.tsx</title>
<g id="a_node11"><a xlink:href="features/media/components/index.tsx" xlink:title="index.tsx">
<path fill="#bbfeff" stroke="black" d="M91.08,-342.88C91.08,-342.88 48.92,-342.88 48.92,-342.88 45.96,-342.88 43,-339.92 43,-336.96 43,-336.96 43,-331.04 43,-331.04 43,-328.08 45.96,-325.12 48.92,-325.12 48.92,-325.12 91.08,-325.12 91.08,-325.12 94.04,-325.12 97,-328.08 97,-331.04 97,-331.04 97,-336.96 97,-336.96 97,-339.92 94.04,-342.88 91.08,-342.88"/>
<text text-anchor="start" x="52" y="-330.32" font-family="Helvetica,sans-Serif" font-size="9.00">index.tsx</text>
</a>
</g>
</g>
<!-- features/media/components/index.tsx&#45;&gt;features/media/components/ImageInput.tsx -->
<g id="edge9" class="edge">
<title>features/media/components/index.tsx&#45;&gt;features/media/components/ImageInput.tsx</title>
<g id="a_edge9"><a xlink:title="no&#45;feature&#45;to&#45;feature">
<path fill="none" stroke="red" stroke-width="2" d="M70,-324.66C70,-320.99 70,-317.62 70,-317.62 70,-317.62 149.3,-317.62 149.3,-317.62"/>
<polygon fill="red" stroke="red" stroke-width="2" points="155.47,-319.73 149.47,-317.63 155.47,-315.53 155.47,-319.73"/>
</a>
</g>
<text text-anchor="middle" x="64.13" y="-309.07" font-family="Helvetica,sans-Serif" font-size="9.00" fill="red">no&#45;feature&#45;to&#45;feature</text>
</g>
<!-- features/media/components/index.tsx&#45;&gt;features/media/components/ImagePreview.tsx -->
<g id="edge10" class="edge">
<title>features/media/components/index.tsx&#45;&gt;features/media/components/ImagePreview.tsx</title>
<g id="a_edge10"><a xlink:title="no&#45;feature&#45;to&#45;feature">
<path fill="none" stroke="red" stroke-width="2" d="M70,-343.34C70,-347.01 70,-350.38 70,-350.38 70,-350.38 143.44,-350.38 143.44,-350.38"/>
<polygon fill="red" stroke="red" stroke-width="2" points="149.61,-352.48 143.61,-350.38 149.61,-348.28 149.61,-352.48"/>
</a>
</g>
<text text-anchor="middle" x="61.2" y="-351.57" font-family="Helvetica,sans-Serif" font-size="9.00" fill="red">no&#45;feature&#45;to&#45;feature</text>
</g>
</g>
</svg>
